<svg version="1.2" xmlns="http://www.w3.org/2000/svg" viewBox="0 0 696 493" width="696" height="493"><defs><linearGradient id="P" gradientUnits="userSpaceOnUse"/><linearGradient id="g1" x1="12.4" y1="99.9" x2="52.7" y2="193.1" href="#P"><stop stop-color="#fad961"/><stop offset="1" stop-color="#ff52c1"/></linearGradient><linearGradient id="g2" x1="49.3" y1="187.6" x2="49.3" y2="249.2" href="#P"><stop stop-color="#00c7fa"/><stop offset="1" stop-color="#007dfa"/></linearGradient><linearGradient id="g3" x1="32.9" y1="304.4" x2="70.6" y2="373" href="#P"><stop stop-color="#ff52c1"/><stop offset="1" stop-color="#9952ff"/></linearGradient><linearGradient id="g4" x1="487.2" y1="218.1" x2="499.7" y2="247.2" href="#P"><stop stop-color="#fad961"/><stop offset="1" stop-color="#ff52c1"/></linearGradient><linearGradient id="g5" x1="487.2" y1="312.6" x2="499.7" y2="341.7" href="#P"><stop stop-color="#fad961"/><stop offset="1" stop-color="#ff52c1"/></linearGradient><linearGradient id="g6" x1="498.7" y1="247.9" x2="498.7" y2="268.4" href="#P"><stop stop-color="#00c7fa"/><stop offset="1" stop-color="#007dfa"/></linearGradient><linearGradient id="g7" x1="498.7" y1="342.4" x2="498.7" y2="362.9" href="#P"><stop stop-color="#00c7fa"/><stop offset="1" stop-color="#007dfa"/></linearGradient><linearGradient id="g8" x1="493.2" y1="285.7" x2="505.8" y2="308.5" href="#P"><stop stop-color="#ff52c1"/><stop offset="1" stop-color="#9952ff"/></linearGradient><linearGradient id="g9" x1="493.2" y1="380.1" x2="505.8" y2="403" href="#P"><stop stop-color="#ff52c1"/><stop offset="1" stop-color="#9952ff"/></linearGradient><linearGradient id="g10" x1="487.2" y1="407" x2="499.7" y2="436.2" href="#P"><stop stop-color="#fad961"/><stop offset="1" stop-color="#ff52c1"/></linearGradient><linearGradient id="g11" x1="498.7" y1="436.9" x2="498.7" y2="457.4" href="#P"><stop stop-color="#00c7fa"/><stop offset="1" stop-color="#007dfa"/></linearGradient></defs><style>.a{fill:#fff}.b{fill:#00252e}.c{fill:#e1e8ee}.d{fill:#d8d8d8}.e{fill:url(#g1)}.f{fill:#a7b9c8}.g{fill:url(#g2)}.h{fill:url(#g3)}.i{fill:url(#g4)}.j{fill:url(#g5)}.k{fill:url(#g6)}.l{fill:url(#g7)}.m{fill:url(#g8)}.n{fill:url(#g9)}.o{fill:url(#g10)}.p{fill:url(#g11)}</style><path class="a" d="m0 13.7c0-7.6 6.1-13.7 13.7-13.7h630.2c7.6 0 13.7 6.1 13.7 13.7v383.4c0 7.6-6.1 13.7-13.7 13.7h-630.2c-7.6 0-13.7-6.1-13.7-13.7z"/><path class="b" d="m0 13.7c0-7.6 6.1-13.7 13.7-13.7h630.2c7.6 0 13.7 6.1 13.7 13.7v30.1h-657.6z"/><path class="c" d="m49.3 17.1c0-1.9 1.6-3.4 3.4-3.4h130.2c1.9 0 3.4 1.5 3.4 3.4v9.6c0 1.9-1.5 3.4-3.4 3.4h-130.2c-1.8 0-3.4-1.5-3.4-3.4z"/><path class="d" d="m591.9 16.4c0-0.7 0.6-1.3 1.3-1.3h19.2c0.8 0 1.4 0.6 1.4 1.3 0 0.8-0.6 1.4-1.4 1.4h-19.2c-0.7 0-1.3-0.6-1.3-1.4z"/><path class="d" d="m591.9 21.9c0-0.7 0.6-1.4 1.3-1.4h19.2c0.8 0 1.4 0.7 1.4 1.4 0 0.8-0.6 1.4-1.4 1.4h-19.2c-0.7 0-1.3-0.6-1.3-1.4z"/><path class="d" d="m591.9 27.4c0-0.8 0.6-1.4 1.3-1.4h19.2c0.8 0 1.4 0.6 1.4 1.4 0 0.7-0.6 1.4-1.4 1.4h-19.2c-0.7 0-1.3-0.7-1.3-1.4z"/><path class="e" d="m82.2 160.2c-18.2 0-32.9-14.7-32.9-32.8 0-18.2 14.7-32.9 32.9-32.9 18.2 0 32.9 14.7 32.9 32.9 0 18.1-14.7 32.8-32.9 32.8z"/><path class="c" d="m153.4 104.8c0-1.2 1-2.1 2.1-2.1h74.7c1.1 0 2 0.9 2 2.1v6.8c0 1.1-0.9 2.1-2 2.1h-74.7c-1.1 0-2.1-1-2.1-2.1z"/><path class="c" d="m153.4 126.7c0-1.2 1-2.1 2.1-2.1h269.9c1.1 0 2.1 0.9 2.1 2.1v1.3c0 1.2-1 2.1-2.1 2.1h-269.9c-1.1 0-2.1-0.9-2.1-2.1z"/><path class="c" d="m153.4 137.6c0-1.1 1-2 2.1-2h247.1c1.1 0 2 0.9 2 2v1.4c0 1.1-0.9 2.1-2 2.1h-247.1c-1.1 0-2.1-1-2.1-2.1z"/><path class="c" d="m153.4 148.6c0-1.1 1-2.1 2.1-2.1h224.2c1.2 0 2.1 1 2.1 2.1v1.4c0 1.1-0.9 2-2.1 2h-224.2c-1.1 0-2.1-0.9-2.1-2z"/><path class="f" d="m468.6 135.6c-4.6 0-8.3-3.7-8.3-8.2 0-4.6 3.7-8.3 8.3-8.3 4.5 0 8.2 3.7 8.2 8.3 0 4.5-3.7 8.2-8.2 8.2z"/><path class="f" d="m512.4 135.6c-4.5 0-8.2-3.7-8.2-8.2 0-4.6 3.7-8.3 8.2-8.3 4.6 0 8.2 3.7 8.2 8.3 0 4.5-3.6 8.2-8.2 8.2z"/><path class="f" d="m490.5 135.6c-4.6 0-8.2-3.7-8.2-8.2 0-4.6 3.6-8.3 8.2-8.3 4.5 0 8.2 3.7 8.2 8.3 0 4.5-3.7 8.2-8.2 8.2z"/><path class="f" d="m534.3 135.6c-4.5 0-8.2-3.7-8.2-8.2 0-4.6 3.7-8.3 8.2-8.3 4.6 0 8.3 3.7 8.3 8.3 0 4.5-3.7 8.2-8.3 8.2z"/><path class="f" d="m556.3 135.6c-4.6 0-8.3-3.7-8.3-8.2 0-4.6 3.7-8.3 8.3-8.3 4.5 0 8.2 3.7 8.2 8.3 0 4.5-3.7 8.2-8.2 8.2z"/><path class="g" d="m80.1 249.2c-17 0-30.8-13.7-30.8-30.8 0-17 13.8-30.8 30.8-30.8 17.1 0 30.9 13.8 30.9 30.8 0 17.1-13.8 30.8-30.9 30.8z"/><path class="c" d="m151.4 195.8c0-1.1 0.9-2 2-2h74.7c1.2 0 2.1 0.9 2.1 2v6.9c0 1.1-0.9 2-2.1 2h-74.7c-1.1 0-2-0.9-2-2z"/><path class="c" d="m151.4 217.7c0-1.1 0.9-2 2-2h270c1.1 0 2 0.9 2 2v1.4c0 1.1-0.9 2.1-2 2.1h-270c-1.1 0-2-1-2-2.1z"/><path class="c" d="m151.4 228.7c0-1.1 0.9-2.1 2-2.1h247.1c1.2 0 2.1 1 2.1 2.1v1.4c0 1.1-0.9 2-2.1 2h-247.1c-1.1 0-2-0.9-2-2z"/><path class="c" d="m151.4 239.7c0-1.2 0.9-2.1 2-2.1h224.3c1.1 0 2 0.9 2 2.1v1.3c0 1.2-0.9 2.1-2 2.1h-224.3c-1.1 0-2-0.9-2-2.1z"/><path class="f" d="m466.5 226.6c-4.5 0-8.2-3.6-8.2-8.2 0-4.5 3.7-8.2 8.2-8.2 4.6 0 8.2 3.7 8.2 8.2 0 4.6-3.6 8.2-8.2 8.2z"/><path class="f" d="m510.4 226.6c-4.6 0-8.3-3.6-8.3-8.2 0-4.5 3.7-8.2 8.3-8.2 4.5 0 8.2 3.7 8.2 8.2 0 4.6-3.7 8.2-8.2 8.2z"/><path class="f" d="m488.4 226.6c-4.5 0-8.2-3.6-8.2-8.2 0-4.5 3.7-8.2 8.2-8.2 4.6 0 8.3 3.7 8.3 8.2 0 4.6-3.7 8.2-8.3 8.2z"/><path class="h" d="m80.1 347.2c-17 0-30.8-13.8-30.8-30.9 0-17 13.8-30.8 30.8-30.8 17.1 0 30.9 13.8 30.9 30.8 0 17.1-13.8 30.9-30.9 30.9z"/><path class="c" d="m151.4 293.7c0-1.1 0.9-2 2-2h74.7c1.2 0 2.1 0.9 2.1 2v6.9c0 1.1-0.9 2-2.1 2h-74.7c-1.1 0-2-0.9-2-2z"/><path class="c" d="m151.4 315.7c0-1.2 0.9-2.1 2-2.1h270c1.1 0 2 0.9 2 2.1v1.3c0 1.2-0.9 2.1-2 2.1h-270c-1.1 0-2-0.9-2-2.1z"/><path class="c" d="m151.4 326.6c0-1.1 0.9-2 2-2h247.1c1.2 0 2.1 0.9 2.1 2v1.4c0 1.1-0.9 2-2.1 2h-247.1c-1.1 0-2-0.9-2-2z"/><path class="c" d="m151.4 337.6c0-1.2 0.9-2.1 2-2.1h224.3c1.1 0 2 0.9 2 2.1v1.3c0 1.2-0.9 2.1-2 2.1h-224.3c-1.1 0-2-0.9-2-2.1z"/><path class="f" d="m466.5 324.6c-4.5 0-8.2-3.7-8.2-8.3 0-4.5 3.7-8.2 8.2-8.2 4.6 0 8.2 3.7 8.2 8.2 0 4.6-3.6 8.3-8.2 8.3z"/><path class="f" d="m510.4 324.6c-4.6 0-8.3-3.7-8.3-8.3 0-4.5 3.7-8.2 8.3-8.2 4.5 0 8.2 3.7 8.2 8.2 0 4.6-3.7 8.3-8.2 8.3z"/><path class="f" d="m488.4 324.6c-4.5 0-8.2-3.7-8.2-8.3 0-4.5 3.7-8.2 8.2-8.2 4.6 0 8.3 3.7 8.3 8.2 0 4.6-3.7 8.3-8.3 8.3z"/><path class="f" d="m532.3 324.6c-4.6 0-8.2-3.7-8.2-8.3 0-4.5 3.6-8.2 8.2-8.2 4.5 0 8.2 3.7 8.2 8.2 0 4.6-3.7 8.3-8.2 8.3z"/><path fill-rule="evenodd" class="a" d="m476.8 154.1c0-6.4 5.2-11.7 11.7-11.7h195.8c6.5 0 11.7 5.3 11.7 11.7v327.2c0 6.5-5.2 11.7-11.7 11.7h-195.8c-6.5 0-11.7-5.2-11.7-11.7z"/><path fill-rule="evenodd" class="b" d="m476.8 154.1c0-6.4 5.2-11.7 11.7-11.7h195.8c6.5 0 11.7 5.3 11.7 11.7v25.7h-219.2z"/><path class="c" d="m498.8 158.2c0-1.6 1.3-2.9 2.9-2.9h65.4c1.6 0 2.9 1.3 2.9 2.9v8.2c0 1.6-1.3 2.9-2.9 2.9h-65.4c-1.6 0-2.9-1.3-2.9-2.9z"/><path class="d" d="m653.9 157.6c0-0.6 0.5-1.2 1.2-1.2h16.3c0.7 0 1.2 0.6 1.2 1.2 0 0.7-0.5 1.2-1.2 1.2h-16.3c-0.7 0-1.2-0.5-1.2-1.2z"/><path class="d" d="m653.9 162.3c0-0.7 0.5-1.2 1.2-1.2h16.3c0.7 0 1.2 0.5 1.2 1.2 0 0.6-0.5 1.2-1.2 1.2h-16.3c-0.7 0-1.2-0.6-1.2-1.2z"/><path class="d" d="m653.9 167c0-0.7 0.5-1.2 1.2-1.2h16.3c0.7 0 1.2 0.5 1.2 1.2 0 0.6-0.5 1.1-1.2 1.1h-16.3c-0.7 0-1.2-0.5-1.2-1.1z"/><path class="i" d="m509 236.9c-5.7 0-10.3-4.6-10.3-10.3 0-5.6 4.6-10.2 10.3-10.2 5.7 0 10.3 4.6 10.3 10.2 0 5.7-4.6 10.3-10.3 10.3z"/><path class="c" d="m530.2 219.1c0-0.4 0.3-0.7 0.6-0.7h38.2c0.3 0 0.6 0.3 0.6 0.7v2.3c0 0.4-0.3 0.7-0.6 0.7h-38.2c-0.3 0-0.6-0.3-0.6-0.7z"/><path class="c" d="m530.2 226.4c0-0.4 0.3-0.7 0.6-0.7h135.8c0.3 0 0.6 0.3 0.6 0.7v0.5c0 0.4-0.3 0.7-0.6 0.7h-135.8c-0.3 0-0.6-0.3-0.6-0.7z"/><path class="c" d="m530.2 230c0-0.3 0.3-0.6 0.6-0.6h124.4c0.3 0 0.6 0.3 0.6 0.6v0.6c0 0.3-0.3 0.6-0.6 0.6h-124.4c-0.3 0-0.6-0.3-0.6-0.6z"/><path class="c" d="m530.2 233.7c0-0.4 0.3-0.7 0.6-0.7h113c0.3 0 0.6 0.3 0.6 0.7v0.5c0 0.4-0.3 0.7-0.6 0.7h-113c-0.3 0-0.6-0.3-0.6-0.7z"/><path class="j" d="m509 331.4c-5.7 0-10.3-4.6-10.3-10.3 0-5.6 4.6-10.2 10.3-10.2 5.7 0 10.3 4.6 10.3 10.2 0 5.7-4.6 10.3-10.3 10.3z"/><path class="c" d="m530.2 313.5c0-0.3 0.3-0.6 0.6-0.6h38.2c0.3 0 0.6 0.3 0.6 0.6v2.4c0 0.4-0.3 0.7-0.6 0.7h-38.2c-0.3 0-0.6-0.3-0.6-0.7z"/><path class="c" d="m530.2 320.9c0-0.4 0.3-0.7 0.6-0.7h135.8c0.3 0 0.6 0.3 0.6 0.7v0.5c0 0.4-0.3 0.6-0.6 0.6h-135.8c-0.3 0-0.6-0.2-0.6-0.6z"/><path class="c" d="m530.2 324.5c0-0.3 0.3-0.6 0.6-0.6h124.4c0.3 0 0.6 0.3 0.6 0.6v0.6c0 0.3-0.3 0.6-0.6 0.6h-124.4c-0.3 0-0.6-0.3-0.6-0.6z"/><path class="c" d="m530.2 328.2c0-0.4 0.3-0.7 0.6-0.7h113c0.3 0 0.6 0.3 0.6 0.7v0.5c0 0.4-0.3 0.7-0.6 0.7h-113c-0.3 0-0.6-0.3-0.6-0.7z"/><path class="c" d="m530.2 250.6c0-0.4 0.3-0.7 0.6-0.7h38.2c0.3 0 0.6 0.3 0.6 0.7v2.3c0 0.4-0.3 0.7-0.6 0.7h-38.2c-0.3 0-0.6-0.3-0.6-0.7z"/><path class="c" d="m530.2 257.9c0-0.4 0.3-0.7 0.6-0.7h135.8c0.3 0 0.6 0.3 0.6 0.7v0.5c0 0.4-0.3 0.7-0.6 0.7h-135.8c-0.3 0-0.6-0.3-0.6-0.7z"/><path class="c" d="m530.2 261.5c0-0.3 0.3-0.6 0.6-0.6h124.4c0.3 0 0.6 0.3 0.6 0.6v0.6c0 0.3-0.3 0.6-0.6 0.6h-124.4c-0.3 0-0.6-0.3-0.6-0.6z"/><path class="c" d="m530.2 265.2c0-0.4 0.3-0.7 0.6-0.7h113c0.3 0 0.6 0.3 0.6 0.7v0.5c0 0.4-0.3 0.7-0.6 0.7h-113c-0.3 0-0.6-0.3-0.6-0.7z"/><path class="k" d="m509 268.4c-5.7 0-10.3-4.6-10.3-10.3 0-5.6 4.6-10.2 10.3-10.2 5.7 0 10.3 4.6 10.3 10.2 0 5.7-4.6 10.3-10.3 10.3z"/><path class="c" d="m530.2 345c0-0.3 0.3-0.6 0.6-0.6h38.2c0.3 0 0.6 0.3 0.6 0.6v2.4c0 0.4-0.3 0.7-0.6 0.7h-38.2c-0.3 0-0.6-0.3-0.6-0.7z"/><path class="c" d="m530.2 352.3c0-0.3 0.3-0.6 0.6-0.6h135.8c0.3 0 0.6 0.3 0.6 0.6v0.6c0 0.4-0.3 0.6-0.6 0.6h-135.8c-0.3 0-0.6-0.2-0.6-0.6z"/><path class="c" d="m530.2 356c0-0.3 0.3-0.6 0.6-0.6h124.4c0.3 0 0.6 0.3 0.6 0.6v0.6c0 0.3-0.3 0.6-0.6 0.6h-124.4c-0.3 0-0.6-0.3-0.6-0.6z"/><path class="c" d="m530.2 359.7c0-0.4 0.3-0.7 0.6-0.7h113c0.3 0 0.6 0.3 0.6 0.7v0.5c0 0.4-0.3 0.6-0.6 0.6h-113c-0.3 0-0.6-0.2-0.6-0.6z"/><path class="l" d="m509 362.9c-5.7 0-10.3-4.6-10.3-10.3 0-5.6 4.6-10.2 10.3-10.2 5.7 0 10.3 4.6 10.3 10.2 0 5.7-4.6 10.3-10.3 10.3z"/><path class="c" d="m530.2 282.1c0-0.4 0.3-0.7 0.6-0.7h38.2c0.3 0 0.6 0.3 0.6 0.7v2.3c0 0.4-0.3 0.7-0.6 0.7h-38.2c-0.3 0-0.6-0.3-0.6-0.7z"/><path class="c" d="m530.2 289.4c0-0.4 0.3-0.7 0.6-0.7h135.8c0.3 0 0.6 0.3 0.6 0.7v0.5c0 0.4-0.3 0.7-0.6 0.7h-135.8c-0.3 0-0.6-0.3-0.6-0.7z"/><path class="c" d="m530.2 293c0-0.3 0.3-0.6 0.6-0.6h124.4c0.3 0 0.6 0.3 0.6 0.6v0.6c0 0.3-0.3 0.6-0.6 0.6h-124.4c-0.3 0-0.6-0.3-0.6-0.6z"/><path class="c" d="m530.2 296.7c0-0.4 0.3-0.7 0.6-0.7h113c0.3 0 0.6 0.3 0.6 0.7v0.5c0 0.4-0.3 0.7-0.6 0.7h-113c-0.3 0-0.6-0.3-0.6-0.7z"/><path class="m" d="m509 299.9c-5.7 0-10.3-4.6-10.3-10.3 0-5.6 4.6-10.2 10.3-10.2 5.7 0 10.3 4.6 10.3 10.2 0 5.7-4.6 10.3-10.3 10.3z"/><path class="c" d="m530.2 376.5c0-0.3 0.3-0.6 0.6-0.6h38.2c0.3 0 0.6 0.3 0.6 0.6v2.4c0 0.4-0.3 0.7-0.6 0.7h-38.2c-0.3 0-0.6-0.3-0.6-0.7z"/><path class="c" d="m530.2 383.8c0-0.3 0.3-0.6 0.6-0.6h135.8c0.3 0 0.6 0.3 0.6 0.6v0.6c0 0.4-0.3 0.6-0.6 0.6h-135.8c-0.3 0-0.6-0.2-0.6-0.6z"/><path class="c" d="m530.2 387.5c0-0.3 0.3-0.6 0.6-0.6h124.4c0.3 0 0.6 0.3 0.6 0.6v0.6c0 0.3-0.3 0.6-0.6 0.6h-124.4c-0.3 0-0.6-0.3-0.6-0.6z"/><path class="c" d="m530.2 391.1c0-0.3 0.3-0.6 0.6-0.6h113c0.3 0 0.6 0.3 0.6 0.6v0.6c0 0.4-0.3 0.6-0.6 0.6h-113c-0.3 0-0.6-0.2-0.6-0.6z"/><path class="n" d="m509 394.4c-5.7 0-10.3-4.6-10.3-10.3 0-5.7 4.6-10.2 10.3-10.2 5.7 0 10.3 4.5 10.3 10.2 0 5.7-4.6 10.3-10.3 10.3z"/><path class="o" d="m509 425.9c-5.7 0-10.3-4.6-10.3-10.3 0-5.7 4.6-10.2 10.3-10.2 5.7 0 10.3 4.5 10.3 10.2 0 5.7-4.6 10.3-10.3 10.3z"/><path class="c" d="m530.2 408c0-0.3 0.3-0.6 0.6-0.6h38.2c0.3 0 0.6 0.3 0.6 0.6v2.4c0 0.4-0.3 0.7-0.6 0.7h-38.2c-0.3 0-0.6-0.3-0.6-0.7z"/><path class="c" d="m530.2 415.3c0-0.3 0.3-0.6 0.6-0.6h135.8c0.3 0 0.6 0.3 0.6 0.6v0.6c0 0.4-0.3 0.6-0.6 0.6h-135.8c-0.3 0-0.6-0.2-0.6-0.6z"/><path class="c" d="m530.2 419c0-0.4 0.3-0.6 0.6-0.6h124.4c0.3 0 0.6 0.2 0.6 0.6v0.6c0 0.3-0.3 0.6-0.6 0.6h-124.4c-0.3 0-0.6-0.3-0.6-0.6z"/><path class="c" d="m530.2 422.6c0-0.3 0.3-0.6 0.6-0.6h113c0.3 0 0.6 0.3 0.6 0.6v0.6c0 0.4-0.3 0.6-0.6 0.6h-113c-0.3 0-0.6-0.2-0.6-0.6z"/><path class="c" d="m530.2 439.5c0-0.3 0.3-0.6 0.6-0.6h38.2c0.3 0 0.6 0.3 0.6 0.6v2.4c0 0.4-0.3 0.7-0.6 0.7h-38.2c-0.3 0-0.6-0.3-0.6-0.7z"/><path class="c" d="m530.2 446.8c0-0.3 0.3-0.6 0.6-0.6h135.8c0.3 0 0.6 0.3 0.6 0.6v0.6c0 0.4-0.3 0.6-0.6 0.6h-135.8c-0.3 0-0.6-0.2-0.6-0.6z"/><path class="c" d="m530.2 450.5c0-0.4 0.3-0.6 0.6-0.6h124.4c0.3 0 0.6 0.2 0.6 0.6v0.6c0 0.3-0.3 0.6-0.6 0.6h-124.4c-0.3 0-0.6-0.3-0.6-0.6z"/><path class="c" d="m530.2 454.1c0-0.3 0.3-0.6 0.6-0.6h113c0.3 0 0.6 0.3 0.6 0.6v0.6c0 0.4-0.3 0.6-0.6 0.6h-113c-0.3 0-0.6-0.2-0.6-0.6z"/><path class="p" d="m509 457.4c-5.7 0-10.3-4.6-10.3-10.3 0-5.7 4.6-10.2 10.3-10.2 5.7 0 10.3 4.5 10.3 10.2 0 5.7-4.6 10.3-10.3 10.3z"/></svg>